<?xml version="1.0" encoding="utf-8"?>
<!-- Generator: Adobe Illustrator 21.0.0, SVG Export Plug-In . SVG Version: 6.00 Build 0)  -->
<svg version="1.1" xmlns="http://www.w3.org/2000/svg" xmlns:xlink="http://www.w3.org/1999/xlink" x="0px" y="0px"
	 viewBox="0 0 350 314" style="enable-background:new 0 0 350 314;" xml:space="preserve">
<style type="text/css">
	.st0{fill:none;stroke:#333333;}
	.st1{fill:#666666;}
	.st2{fill:#FF0000;}
	.st3{fill:#FBB03B;stroke:#DA7E27;stroke-miterlimit:10;}
	.st4{fill:none;stroke:#000000;stroke-linecap:round;stroke-miterlimit:10;}
	.st5{fill:#262626;}
	.st6{fill:#FFFFFF;}
	.st7{fill:none;stroke:#FF0000;stroke-width:1.5;}
</style>
<g id="Layer_2">
	<line class="st0" x1="47.3" y1="55.7" x2="41.7" y2="55.7"/>
	<line class="st0" x1="46.9" y1="130" x2="41.7" y2="130"/>
	<line class="st0" x1="46.9" y1="204.3" x2="41.7" y2="204.3"/>
	<line class="st0" x1="124.4" y1="278.8" x2="124.4" y2="284"/>
	<line class="st0" x1="47" y1="55.7" x2="47" y2="278.8"/>
	<line class="st0" x1="208" y1="279.1" x2="46.7" y2="279.1"/>
	<g>
		<g>
			<path class="st1" d="M41.8,290c0.4,0.7,0.6,1.6,0.6,2.8c0,1.1-0.2,2.1-0.5,2.8c-0.5,1.1-1.3,1.6-2.4,1.6c-1,0-1.8-0.4-2.2-1.3
				c-0.4-0.7-0.6-1.7-0.6-2.9c0-1,0.1-1.8,0.4-2.5c0.5-1.3,1.3-1.9,2.5-1.9C40.5,288.7,41.3,289.2,41.8,290z M40.7,295.6
				c0.3-0.5,0.5-1.4,0.5-2.7c0-1-0.1-1.7-0.4-2.4c-0.2-0.6-0.7-0.9-1.4-0.9c-0.6,0-1.1,0.3-1.4,0.9c-0.3,0.6-0.4,1.4-0.4,2.6
				c0,0.9,0.1,1.5,0.3,2.1c0.3,0.8,0.8,1.2,1.4,1.2C39.9,296.4,40.4,296.1,40.7,295.6z"/>
		</g>
	</g>
	<g>
		<path class="st1" d="M124.4,288.5h1.3l3.1,8.6h-1.3l-0.9-2.6h-3.4l-0.9,2.6h-1.2L124.4,288.5z M126.3,293.6l-1.3-3.8l-1.4,3.8
			H126.3z"/>
	</g>
	<g>
		<path class="st1" d="M26.7,200.2c0.4,0.7,0.6,1.6,0.6,2.8c0,1.1-0.2,2.1-0.5,2.8c-0.5,1.1-1.3,1.6-2.4,1.6c-1,0-1.8-0.4-2.2-1.3
			c-0.4-0.7-0.6-1.7-0.6-2.9c0-1,0.1-1.8,0.4-2.5c0.5-1.3,1.3-1.9,2.5-1.9C25.4,198.9,26.2,199.3,26.7,200.2z M25.6,205.8
			c0.3-0.5,0.5-1.4,0.5-2.7c0-1-0.1-1.7-0.4-2.4c-0.2-0.6-0.7-0.9-1.4-0.9c-0.6,0-1.1,0.3-1.4,0.9c-0.3,0.6-0.4,1.4-0.4,2.6
			c0,0.9,0.1,1.5,0.3,2.1c0.3,0.8,0.8,1.2,1.4,1.2C24.9,206.5,25.3,206.3,25.6,205.8z"/>
		<path class="st1" d="M28.8,206H30v1.3h-1.2V206z"/>
		<path class="st1" d="M32.2,201.3v-0.8c0.8-0.1,1.3-0.2,1.6-0.4s0.5-0.6,0.7-1.2h0.8v8.4h-1.1v-5.9H32.2z"/>
	</g>
	<g>
		<path class="st1" d="M26.7,125.9c0.4,0.7,0.6,1.6,0.6,2.8c0,1.1-0.2,2.1-0.5,2.8c-0.5,1.1-1.3,1.6-2.4,1.6c-1,0-1.8-0.4-2.2-1.3
			c-0.4-0.7-0.6-1.7-0.6-2.9c0-1,0.1-1.8,0.4-2.5c0.5-1.3,1.3-1.9,2.5-1.9C25.4,124.5,26.2,125,26.7,125.9z M25.6,131.5
			c0.3-0.5,0.5-1.4,0.5-2.7c0-1-0.1-1.7-0.4-2.4c-0.2-0.6-0.7-0.9-1.4-0.9c-0.6,0-1.1,0.3-1.4,0.9c-0.3,0.6-0.4,1.4-0.4,2.6
			c0,0.9,0.1,1.5,0.3,2.1c0.3,0.8,0.8,1.2,1.4,1.2C24.9,132.2,25.3,131.9,25.6,131.5z"/>
		<path class="st1" d="M28.8,131.6H30v1.3h-1.2V131.6z"/>
		<path class="st1" d="M31.9,131c0.3-0.5,0.8-1,1.5-1.5l1.1-0.7c0.5-0.3,0.9-0.5,1.1-0.8c0.3-0.3,0.5-0.7,0.5-1.1
			c0-0.5-0.1-0.9-0.4-1.2s-0.7-0.4-1.2-0.4c-0.7,0-1.2,0.3-1.5,0.8c-0.1,0.3-0.2,0.7-0.2,1.2h-1.1c0-0.7,0.1-1.3,0.4-1.8
			c0.5-0.8,1.3-1.2,2.4-1.2c1,0,1.7,0.3,2.1,0.8s0.7,1.1,0.7,1.7c0,0.7-0.2,1.2-0.7,1.7c-0.3,0.3-0.8,0.6-1.5,1l-0.8,0.4
			c-0.4,0.2-0.7,0.4-0.9,0.6c-0.4,0.3-0.6,0.7-0.7,1.1h4.6v1h-5.8C31.5,132.2,31.6,131.6,31.9,131z"/>
	</g>
	<g>
		<path class="st1" d="M26.7,51.9c0.4,0.7,0.6,1.6,0.6,2.8c0,1.1-0.2,2.1-0.5,2.8c-0.5,1.1-1.3,1.6-2.4,1.6c-1,0-1.8-0.4-2.2-1.3
			c-0.4-0.7-0.6-1.7-0.6-2.9c0-1,0.1-1.8,0.4-2.5c0.5-1.3,1.3-1.9,2.5-1.9C25.4,50.5,26.2,51,26.7,51.9z M25.6,57.5
			c0.3-0.5,0.5-1.4,0.5-2.7c0-1-0.1-1.7-0.4-2.4c-0.2-0.6-0.7-0.9-1.4-0.9c-0.6,0-1.1,0.3-1.4,0.9c-0.3,0.6-0.4,1.4-0.4,2.6
			c0,0.9,0.1,1.5,0.3,2.1c0.3,0.8,0.8,1.2,1.4,1.2C24.9,58.2,25.3,57.9,25.6,57.5z"/>
		<path class="st1" d="M28.8,57.6H30v1.3h-1.2V57.6z"/>
		<path class="st1" d="M32,58.3c-0.4-0.5-0.7-1.2-0.7-2h1.1c0,0.5,0.1,0.9,0.3,1.2c0.3,0.4,0.8,0.7,1.5,0.7c0.6,0,1-0.1,1.3-0.4
			s0.5-0.7,0.5-1.1c0-0.6-0.2-1-0.5-1.2S34.7,55,34.1,55c-0.1,0-0.1,0-0.2,0s-0.1,0-0.2,0v-0.9c0.1,0,0.2,0,0.3,0s0.2,0,0.2,0
			c0.4,0,0.7-0.1,1-0.2c0.4-0.2,0.7-0.6,0.7-1.2c0-0.4-0.1-0.7-0.4-1s-0.6-0.3-1-0.3c-0.7,0-1.2,0.2-1.5,0.7
			c-0.1,0.3-0.2,0.6-0.3,1.1h-1c0-0.6,0.1-1.2,0.4-1.6c0.4-0.8,1.2-1.2,2.3-1.2c0.9,0,1.5,0.2,2,0.6s0.7,0.9,0.7,1.7
			c0,0.5-0.1,0.9-0.4,1.3c-0.2,0.2-0.4,0.4-0.7,0.5c0.4,0.1,0.8,0.4,1,0.7s0.4,0.8,0.4,1.3c0,0.8-0.3,1.5-0.8,2s-1.3,0.8-2.2,0.8
			C33.2,59.1,32.5,58.9,32,58.3z"/>
	</g>
	<g>
		<path class="st2" d="M22.9,24.5c-0.7,1.4-1.2,2.4-1.4,3.1c-0.3,1-0.5,2.2-0.5,3.5c0,1.3,0.2,2.5,0.6,3.6c0.2,0.7,0.7,1.6,1.3,2.9
			h-0.8c-0.7-1-1.1-1.7-1.2-2s-0.3-0.7-0.5-1.2c-0.3-0.7-0.4-1.4-0.5-2.2c-0.1-0.4-0.1-0.8-0.1-1.1c0-1.3,0.2-2.5,0.6-3.6
			c0.3-0.7,0.8-1.7,1.7-3H22.9z"/>
		<path class="st2" d="M24.9,24.6h7.3v1.2h-6v3h5.5v1.2h-5.5v3.4h6.1v1.2h-7.4V24.6z"/>
		<path class="st2" d="M35.1,32.4c0,0.4,0.1,0.7,0.3,0.9c0.3,0.4,0.9,0.6,1.6,0.6c0.5,0,0.9-0.1,1.2-0.3s0.5-0.5,0.5-0.9
			c0-0.3-0.1-0.6-0.4-0.7c-0.2-0.1-0.5-0.2-1.1-0.3l-1-0.2c-0.6-0.2-1.1-0.3-1.4-0.5c-0.5-0.3-0.8-0.8-0.8-1.4
			c0-0.7,0.3-1.3,0.8-1.7c0.5-0.4,1.2-0.6,2-0.6c1.1,0,1.9,0.3,2.4,1c0.3,0.4,0.5,0.9,0.5,1.3h-1.2c0-0.3-0.1-0.5-0.3-0.8
			c-0.3-0.3-0.8-0.5-1.5-0.5c-0.5,0-0.8,0.1-1.1,0.3c-0.2,0.2-0.4,0.4-0.4,0.7c0,0.3,0.2,0.6,0.5,0.8c0.2,0.1,0.5,0.2,0.8,0.3
			l0.8,0.2c0.9,0.2,1.5,0.4,1.8,0.6c0.5,0.3,0.7,0.8,0.7,1.5c0,0.7-0.3,1.2-0.8,1.7S38,35,36.9,35c-1.1,0-1.9-0.2-2.3-0.7
			c-0.5-0.5-0.7-1.1-0.7-1.8H35.1z"/>
		<path class="st2" d="M46.5,27.8c0.5,0.4,0.8,1.1,0.9,2.1h-1.2c-0.1-0.5-0.2-0.8-0.5-1.1s-0.7-0.4-1.3-0.4c-0.8,0-1.3,0.4-1.7,1.1
			c-0.2,0.5-0.3,1.1-0.3,1.8c0,0.7,0.2,1.3,0.5,1.9c0.3,0.5,0.8,0.8,1.5,0.8c0.5,0,0.9-0.2,1.2-0.5s0.5-0.7,0.6-1.3h1.2
			c-0.1,1-0.5,1.7-1,2.1s-1.2,0.7-2.1,0.7c-1,0-1.7-0.3-2.3-1s-0.9-1.6-0.9-2.6c0-1.3,0.3-2.3,0.9-3s1.4-1.1,2.4-1.1
			C45.3,27.2,46,27.4,46.5,27.8z"/>
		<path class="st2" d="M52.9,30.3c0.3,0,0.5-0.2,0.6-0.4c0.1-0.1,0.1-0.3,0.1-0.5c0-0.4-0.1-0.7-0.4-0.9s-0.7-0.3-1.3-0.3
			c-0.6,0-1.1,0.2-1.4,0.5c-0.2,0.2-0.2,0.5-0.3,0.9h-1.1c0-0.9,0.3-1.5,0.9-1.9s1.2-0.5,2-0.5c0.9,0,1.6,0.2,2.1,0.5
			c0.5,0.3,0.8,0.8,0.8,1.5v4.2c0,0.1,0,0.2,0.1,0.3c0.1,0.1,0.2,0.1,0.3,0.1c0.1,0,0.1,0,0.2,0s0.1,0,0.2,0v0.9
			c-0.2,0.1-0.3,0.1-0.4,0.1s-0.2,0-0.4,0c-0.4,0-0.7-0.2-0.9-0.5c-0.1-0.2-0.2-0.4-0.2-0.7c-0.3,0.3-0.6,0.6-1.1,0.9
			c-0.5,0.2-1,0.4-1.6,0.4c-0.7,0-1.2-0.2-1.7-0.6c-0.4-0.4-0.6-0.9-0.6-1.5c0-0.7,0.2-1.2,0.6-1.6c0.4-0.4,1-0.6,1.7-0.7L52.9,30.3
			z M50.4,33.6c0.3,0.2,0.6,0.3,0.9,0.3c0.4,0,0.9-0.1,1.3-0.3c0.7-0.3,1-0.9,1-1.6v-1c-0.2,0.1-0.3,0.2-0.6,0.2
			c-0.2,0.1-0.5,0.1-0.7,0.1l-0.7,0.1c-0.4,0.1-0.8,0.2-1,0.3c-0.4,0.2-0.6,0.6-0.6,1C50,33.1,50.1,33.4,50.4,33.6z"/>
		<path class="st2" d="M57.2,24.6h1.2v10h-1.2V24.6z"/>
		<path class="st2" d="M64.5,30.3c0.3,0,0.5-0.2,0.6-0.4c0.1-0.1,0.1-0.3,0.1-0.5c0-0.4-0.1-0.7-0.4-0.9s-0.7-0.3-1.3-0.3
			c-0.6,0-1.1,0.2-1.4,0.5c-0.2,0.2-0.2,0.5-0.3,0.9h-1.1c0-0.9,0.3-1.5,0.9-1.9s1.2-0.5,2-0.5c0.9,0,1.6,0.2,2.1,0.5
			c0.5,0.3,0.8,0.8,0.8,1.5v4.2c0,0.1,0,0.2,0.1,0.3c0.1,0.1,0.2,0.1,0.3,0.1c0.1,0,0.1,0,0.2,0s0.1,0,0.2,0v0.9
			c-0.2,0.1-0.3,0.1-0.4,0.1s-0.2,0-0.4,0c-0.4,0-0.7-0.2-0.9-0.5c-0.1-0.2-0.2-0.4-0.2-0.7c-0.3,0.3-0.6,0.6-1.1,0.9
			c-0.5,0.2-1,0.4-1.6,0.4c-0.7,0-1.2-0.2-1.7-0.6c-0.4-0.4-0.6-0.9-0.6-1.5c0-0.7,0.2-1.2,0.6-1.6c0.4-0.4,1-0.6,1.7-0.7L64.5,30.3
			z M61.9,33.6c0.3,0.2,0.6,0.3,0.9,0.3c0.4,0,0.9-0.1,1.3-0.3c0.7-0.3,1-0.9,1-1.6v-1c-0.2,0.1-0.3,0.2-0.6,0.2
			c-0.2,0.1-0.5,0.1-0.7,0.1l-0.7,0.1c-0.4,0.1-0.8,0.2-1,0.3c-0.4,0.2-0.6,0.6-0.6,1C61.6,33.1,61.7,33.4,61.9,33.6z"/>
		<path class="st2" d="M68.3,37.5c0.7-1.4,1.2-2.4,1.4-3.1c0.3-1,0.5-2.1,0.5-3.4s-0.2-2.5-0.6-3.6c-0.2-0.7-0.7-1.6-1.3-2.9h0.8
			c0.7,1.1,1.1,1.8,1.3,2.1s0.3,0.6,0.5,1.1c0.2,0.6,0.4,1.1,0.5,1.7s0.1,1.1,0.1,1.6c0,1.3-0.2,2.6-0.6,3.6c-0.3,0.7-0.8,1.7-1.7,3
			H68.3z"/>
	</g>
	<g>
		<path class="st2" d="M213,80h1.5l3.6,10h-1.5l-1-3h-3.9l-1.1,3h-1.4L213,80z M215.3,85.9l-1.5-4.4l-1.6,4.4H215.3z"/>
		<path class="st2" d="M219.6,82.7h1.2v1c0.3-0.4,0.7-0.7,1.1-0.9c0.4-0.2,0.8-0.3,1.3-0.3c1,0,1.7,0.4,2.1,1.1
			c0.2,0.4,0.3,1,0.3,1.7V90h-1.3v-4.6c0-0.4-0.1-0.8-0.2-1.1c-0.2-0.5-0.6-0.7-1.2-0.7c-0.3,0-0.5,0-0.7,0.1
			c-0.3,0.1-0.6,0.3-0.9,0.6c-0.2,0.2-0.3,0.5-0.4,0.7s-0.1,0.6-0.1,1.1V90h-1.2V82.7z"/>
		<path class="st2" d="M232.6,83.1c0.5,0.4,0.8,1.1,0.9,2.1h-1.2c-0.1-0.5-0.2-0.8-0.5-1.1s-0.7-0.4-1.3-0.4c-0.8,0-1.3,0.4-1.7,1.1
			c-0.2,0.5-0.3,1.1-0.3,1.8c0,0.7,0.2,1.3,0.5,1.9c0.3,0.5,0.8,0.8,1.5,0.8c0.5,0,0.9-0.2,1.2-0.5c0.3-0.3,0.5-0.7,0.6-1.3h1.2
			c-0.1,1-0.5,1.7-1,2.1s-1.2,0.7-2.1,0.7c-1,0-1.7-0.3-2.3-1s-0.9-1.6-0.9-2.6c0-1.3,0.3-2.3,0.9-3s1.4-1.1,2.4-1.1
			C231.4,82.5,232,82.7,232.6,83.1z"/>
		<path class="st2" d="M235.1,79.9h1.2v3.7c0.3-0.4,0.6-0.6,0.8-0.8c0.4-0.3,0.9-0.4,1.5-0.4c1.1,0,1.8,0.4,2.2,1.1
			c0.2,0.4,0.3,1,0.3,1.7V90h-1.3v-4.6c0-0.5-0.1-0.9-0.2-1.2c-0.2-0.4-0.6-0.6-1.3-0.6c-0.5,0-1,0.2-1.4,0.5s-0.6,1-0.6,2V90h-1.2
			V79.9z"/>
		<path class="st2" d="M248.5,83.4c0.6,0.6,1,1.6,1,2.8c0,1.2-0.3,2.2-0.9,2.9s-1.5,1.2-2.7,1.2c-1,0-1.8-0.3-2.4-1
			s-0.9-1.6-0.9-2.7c0-1.2,0.3-2.2,0.9-2.9c0.6-0.7,1.5-1.1,2.5-1.1C247.1,82.5,247.9,82.8,248.5,83.4z M247.8,88.3
			c0.3-0.6,0.5-1.3,0.5-2.1c0-0.7-0.1-1.2-0.3-1.7c-0.3-0.7-0.9-1-1.8-1c-0.7,0-1.3,0.3-1.6,0.9s-0.5,1.3-0.5,2.1
			c0,0.8,0.2,1.4,0.5,1.9s0.9,0.8,1.6,0.8C246.9,89.2,247.5,88.9,247.8,88.3z"/>
		<path class="st2" d="M259.6,82.9c0.2,0.1,0.5,0.4,0.7,0.7v-3.7h1.2V90h-1.1v-1c-0.3,0.5-0.6,0.8-1,1c-0.4,0.2-0.8,0.3-1.3,0.3
			c-0.8,0-1.5-0.3-2.1-1s-0.9-1.6-0.9-2.7c0-1.1,0.3-2,0.8-2.8c0.5-0.8,1.3-1.2,2.3-1.2C258.8,82.6,259.2,82.7,259.6,82.9z
			 M256.9,88.4c0.3,0.5,0.9,0.8,1.6,0.8c0.6,0,1-0.2,1.4-0.7s0.5-1.2,0.5-2.1c0-0.9-0.2-1.6-0.6-2.1c-0.4-0.4-0.8-0.7-1.4-0.7
			c-0.6,0-1.1,0.2-1.5,0.7s-0.6,1.2-0.6,2.1C256.4,87.2,256.5,87.9,256.9,88.4z"/>
		<path class="st2" d="M268.2,82.9c0.5,0.2,0.9,0.6,1.1,0.9c0.2,0.4,0.4,0.8,0.5,1.3c0.1,0.3,0.1,0.9,0.1,1.6h-5.3
			c0,0.7,0.2,1.3,0.5,1.8s0.8,0.7,1.5,0.7c0.6,0,1.1-0.2,1.5-0.6c0.2-0.2,0.4-0.5,0.5-0.9h1.2c0,0.3-0.1,0.6-0.3,0.9
			c-0.2,0.3-0.4,0.6-0.6,0.8c-0.4,0.4-0.8,0.6-1.4,0.7c-0.3,0.1-0.6,0.1-1,0.1c-0.9,0-1.7-0.3-2.3-1c-0.6-0.7-0.9-1.6-0.9-2.8
			c0-1.2,0.3-2.1,1-2.9s1.5-1.1,2.5-1.1C267.3,82.5,267.8,82.7,268.2,82.9z M268.7,85.8c0-0.5-0.2-1-0.3-1.3
			c-0.3-0.6-0.9-0.9-1.7-0.9c-0.6,0-1,0.2-1.4,0.6c-0.4,0.4-0.6,0.9-0.6,1.6H268.7z"/>
		<path class="st2" d="M276.3,80h4c1.4,0,2.4,0.5,3.2,1.5c0.7,0.9,1,2,1,3.4c0,1.1-0.2,2-0.6,2.9c-0.7,1.5-1.9,2.3-3.6,2.3h-4V80z
			 M280.1,88.9c0.5,0,0.8,0,1.1-0.1c0.5-0.2,0.9-0.5,1.3-1c0.3-0.4,0.5-0.9,0.6-1.6c0.1-0.4,0.1-0.7,0.1-1.1c0-1.2-0.2-2.2-0.7-2.9
			s-1.3-1-2.3-1h-2.4v7.7H280.1z"/>
		<path class="st2" d="M291.1,82.9c0.5,0.2,0.9,0.6,1.1,0.9c0.2,0.4,0.4,0.8,0.5,1.3c0.1,0.3,0.1,0.9,0.1,1.6h-5.3
			c0,0.7,0.2,1.3,0.5,1.8s0.8,0.7,1.5,0.7c0.6,0,1.1-0.2,1.5-0.6c0.2-0.2,0.4-0.5,0.5-0.9h1.2c0,0.3-0.1,0.6-0.3,0.9
			c-0.2,0.3-0.4,0.6-0.6,0.8c-0.4,0.4-0.8,0.6-1.4,0.7c-0.3,0.1-0.6,0.1-1,0.1c-0.9,0-1.7-0.3-2.3-1c-0.6-0.7-0.9-1.6-0.9-2.8
			c0-1.2,0.3-2.1,1-2.9s1.5-1.1,2.5-1.1C290.1,82.5,290.6,82.7,291.1,82.9z M291.5,85.8c0-0.5-0.2-1-0.3-1.3
			c-0.3-0.6-0.9-0.9-1.7-0.9c-0.6,0-1,0.2-1.4,0.6c-0.4,0.4-0.6,0.9-0.6,1.6H291.5z"/>
		<path class="st2" d="M294.7,82.7h1.2v1c0.3-0.4,0.7-0.7,1.1-0.9c0.4-0.2,0.8-0.3,1.3-0.3c1,0,1.7,0.4,2.1,1.1
			c0.2,0.4,0.3,1,0.3,1.7V90h-1.2v-4.6c0-0.4-0.1-0.8-0.2-1.1c-0.2-0.5-0.6-0.7-1.2-0.7c-0.3,0-0.5,0-0.7,0.1
			c-0.3,0.1-0.6,0.3-0.9,0.6c-0.2,0.2-0.3,0.5-0.4,0.7s-0.1,0.6-0.1,1.1V90h-1.2V82.7z"/>
		<path class="st2" d="M303.6,87.7c0,0.4,0.1,0.7,0.3,0.9c0.3,0.4,0.9,0.6,1.6,0.6c0.5,0,0.9-0.1,1.2-0.3s0.5-0.5,0.5-0.9
			c0-0.3-0.1-0.6-0.4-0.7c-0.2-0.1-0.5-0.2-1.1-0.3l-1-0.2c-0.6-0.2-1.1-0.3-1.4-0.5c-0.5-0.3-0.8-0.8-0.8-1.4
			c0-0.7,0.3-1.3,0.8-1.7s1.2-0.6,2-0.6c1.1,0,1.9,0.3,2.4,1c0.3,0.4,0.5,0.9,0.5,1.3h-1.2c0-0.3-0.1-0.5-0.3-0.8
			c-0.3-0.3-0.8-0.5-1.5-0.5c-0.5,0-0.8,0.1-1.1,0.3c-0.2,0.2-0.4,0.4-0.4,0.7c0,0.3,0.2,0.6,0.5,0.8c0.2,0.1,0.5,0.2,0.8,0.3
			l0.8,0.2c0.9,0.2,1.5,0.4,1.8,0.6c0.5,0.3,0.7,0.8,0.7,1.5c0,0.7-0.2,1.2-0.8,1.7s-1.3,0.7-2.3,0.7c-1.1,0-1.9-0.2-2.3-0.7
			s-0.7-1.1-0.7-1.8H303.6z"/>
		<path class="st2" d="M310.2,80h1.3v1.4h-1.3V80z M310.2,82.7h1.3V90h-1.3V82.7z"/>
		<path class="st2" d="M317.7,82.9c0.2,0.1,0.5,0.4,0.7,0.7v-3.7h1.2V90h-1.1v-1c-0.3,0.5-0.6,0.8-1,1c-0.4,0.2-0.8,0.3-1.3,0.3
			c-0.8,0-1.5-0.3-2.1-1s-0.9-1.6-0.9-2.7c0-1.1,0.3-2,0.8-2.8c0.5-0.8,1.3-1.2,2.3-1.2C316.8,82.6,317.3,82.7,317.7,82.9z
			 M314.9,88.4c0.3,0.5,0.9,0.8,1.6,0.8c0.6,0,1-0.2,1.4-0.7s0.5-1.2,0.5-2.1c0-0.9-0.2-1.6-0.6-2.1c-0.4-0.4-0.8-0.7-1.4-0.7
			c-0.6,0-1.1,0.2-1.5,0.7s-0.6,1.2-0.6,2.1C314.4,87.2,314.6,87.9,314.9,88.4z"/>
		<path class="st2" d="M325.7,85.6c0.3,0,0.5-0.2,0.6-0.4c0.1-0.1,0.1-0.3,0.1-0.5c0-0.4-0.1-0.7-0.4-0.9c-0.3-0.2-0.7-0.3-1.3-0.3
			c-0.6,0-1.1,0.2-1.4,0.5c-0.2,0.2-0.2,0.5-0.3,0.9h-1.1c0-0.9,0.3-1.5,0.9-1.9c0.6-0.4,1.2-0.5,2-0.5c0.9,0,1.6,0.2,2.1,0.5
			c0.5,0.3,0.8,0.8,0.8,1.5v4.2c0,0.1,0,0.2,0.1,0.3c0.1,0.1,0.2,0.1,0.3,0.1c0.1,0,0.1,0,0.2,0s0.1,0,0.2,0v0.9
			c-0.2,0.1-0.3,0.1-0.4,0.1s-0.2,0-0.4,0c-0.4,0-0.7-0.2-0.9-0.5c-0.1-0.2-0.2-0.4-0.2-0.7c-0.3,0.3-0.6,0.6-1.1,0.9
			c-0.5,0.2-1,0.4-1.6,0.4c-0.7,0-1.2-0.2-1.7-0.6c-0.4-0.4-0.6-0.9-0.6-1.5c0-0.7,0.2-1.2,0.6-1.6c0.4-0.4,1-0.6,1.7-0.7
			L325.7,85.6z M323.1,88.9c0.3,0.2,0.6,0.3,0.9,0.3c0.4,0,0.9-0.1,1.3-0.3c0.7-0.3,1-0.9,1-1.6v-1c-0.2,0.1-0.3,0.2-0.6,0.2
			s-0.5,0.1-0.7,0.1l-0.7,0.1c-0.4,0.1-0.8,0.2-1,0.3c-0.4,0.2-0.6,0.6-0.6,1C322.7,88.4,322.9,88.7,323.1,88.9z"/>
		<path class="st2" d="M333.9,82.9c0.2,0.1,0.5,0.4,0.7,0.7v-3.7h1.2V90h-1.1v-1c-0.3,0.5-0.6,0.8-1,1s-0.8,0.3-1.3,0.3
			c-0.8,0-1.5-0.3-2.1-1s-0.9-1.6-0.9-2.7c0-1.1,0.3-2,0.8-2.8c0.5-0.8,1.3-1.2,2.3-1.2C333.1,82.6,333.6,82.7,333.9,82.9z
			 M331.2,88.4c0.3,0.5,0.9,0.8,1.6,0.8c0.6,0,1-0.2,1.4-0.7c0.4-0.5,0.5-1.2,0.5-2.1c0-0.9-0.2-1.6-0.6-2.1
			c-0.4-0.4-0.8-0.7-1.4-0.7c-0.6,0-1.1,0.2-1.5,0.7s-0.6,1.2-0.6,2.1C330.7,87.2,330.9,87.9,331.2,88.4z"/>
		<path class="st2" d="M213.9,99.7c0.2,0.1,0.5,0.4,0.7,0.7v-3.7h1.2v10.1h-1.1v-1c-0.3,0.5-0.6,0.8-1,1c-0.4,0.2-0.8,0.3-1.3,0.3
			c-0.8,0-1.5-0.3-2.1-1c-0.6-0.7-0.9-1.6-0.9-2.7c0-1.1,0.3-2,0.8-2.8s1.3-1.2,2.3-1.2C213.1,99.4,213.5,99.5,213.9,99.7z
			 M211.2,105.2c0.3,0.5,0.9,0.8,1.6,0.8c0.6,0,1-0.2,1.4-0.7c0.4-0.5,0.5-1.2,0.5-2.1c0-0.9-0.2-1.6-0.6-2.1s-0.8-0.7-1.4-0.7
			c-0.6,0-1.1,0.2-1.5,0.7c-0.4,0.5-0.6,1.2-0.6,2.1C210.7,104,210.8,104.7,211.2,105.2z"/>
		<path class="st2" d="M222.6,99.7c0.5,0.2,0.9,0.6,1.1,0.9c0.2,0.4,0.4,0.8,0.5,1.3c0.1,0.3,0.1,0.9,0.1,1.6h-5.3
			c0,0.7,0.2,1.3,0.5,1.8c0.3,0.5,0.8,0.7,1.5,0.7c0.6,0,1.1-0.2,1.5-0.6c0.2-0.2,0.4-0.5,0.5-0.9h1.2c0,0.3-0.1,0.6-0.3,0.9
			s-0.4,0.6-0.6,0.8c-0.4,0.4-0.8,0.6-1.4,0.7c-0.3,0.1-0.6,0.1-1,0.1c-0.9,0-1.7-0.3-2.3-1c-0.6-0.7-0.9-1.6-0.9-2.8
			c0-1.2,0.3-2.1,1-2.9c0.6-0.7,1.5-1.1,2.5-1.1C221.6,99.3,222.1,99.5,222.6,99.7z M223,102.6c-0.1-0.5-0.2-1-0.3-1.3
			c-0.3-0.6-0.9-0.9-1.7-0.9c-0.6,0-1,0.2-1.4,0.6c-0.4,0.4-0.6,0.9-0.6,1.6H223z"/>
		<path class="st2" d="M226.2,96.8h1.2v10h-1.2V96.8z"/>
		<path class="st2" d="M240.7,97.1c1,0.5,1.6,1.4,1.8,2.8h-1.3c-0.2-0.7-0.5-1.3-1-1.6s-1.1-0.5-1.9-0.5c-0.9,0-1.7,0.3-2.3,1
			c-0.6,0.7-0.9,1.7-0.9,3.1c0,1.2,0.3,2.2,0.8,2.9s1.4,1.1,2.5,1.1c0.9,0,1.6-0.3,2.2-0.8c0.6-0.5,0.9-1.4,0.9-2.6h-3.1v-1.1h4.4
			v5.4h-0.9l-0.3-1.3c-0.5,0.5-0.9,0.9-1.2,1.1c-0.6,0.3-1.3,0.5-2.2,0.5c-1.2,0-2.2-0.4-3-1.2c-0.9-1-1.4-2.3-1.4-4
			c0-1.7,0.4-3,1.3-4c0.9-0.9,2-1.4,3.3-1.4C239.2,96.5,240,96.7,240.7,97.1z"/>
		<path class="st2" d="M245.1,99.5h1.2v1.3c0.1-0.2,0.3-0.5,0.7-0.9s0.8-0.5,1.3-0.5c0,0,0.1,0,0.1,0s0.1,0,0.3,0v1.3
			c-0.1,0-0.1,0-0.2,0c-0.1,0-0.1,0-0.2,0c-0.6,0-1.1,0.2-1.4,0.6s-0.5,0.9-0.5,1.4v4.2h-1.2V99.5z"/>
		<path class="st2" d="M254.1,102.4c0.3,0,0.5-0.2,0.6-0.4c0.1-0.1,0.1-0.3,0.1-0.5c0-0.4-0.1-0.7-0.4-0.9s-0.7-0.3-1.3-0.3
			c-0.6,0-1.1,0.2-1.4,0.5c-0.2,0.2-0.2,0.5-0.3,0.9h-1.1c0-0.9,0.3-1.5,0.9-1.9s1.2-0.5,2-0.5c0.9,0,1.6,0.2,2.1,0.5
			c0.5,0.3,0.8,0.8,0.8,1.5v4.2c0,0.1,0,0.2,0.1,0.3c0.1,0.1,0.2,0.1,0.3,0.1c0.1,0,0.1,0,0.2,0s0.1,0,0.2,0v0.9
			c-0.2,0.1-0.3,0.1-0.4,0.1c-0.1,0-0.2,0-0.4,0c-0.4,0-0.7-0.2-0.9-0.5c-0.1-0.2-0.2-0.4-0.2-0.7c-0.2,0.3-0.6,0.6-1.1,0.9
			c-0.5,0.2-1,0.4-1.6,0.4c-0.7,0-1.2-0.2-1.7-0.6c-0.4-0.4-0.6-0.9-0.6-1.5c0-0.7,0.2-1.2,0.6-1.6c0.4-0.4,1-0.6,1.7-0.7
			L254.1,102.4z M251.5,105.7c0.3,0.2,0.6,0.3,0.9,0.3c0.4,0,0.9-0.1,1.3-0.3c0.7-0.3,1-0.9,1-1.6v-1c-0.2,0.1-0.3,0.2-0.6,0.2
			s-0.5,0.1-0.7,0.1l-0.7,0.1c-0.4,0.1-0.8,0.2-1,0.3c-0.4,0.2-0.6,0.6-0.6,1C251.1,105.2,251.2,105.5,251.5,105.7z M254.6,96.6
			l-1.8,2h-0.9l1.3-2H254.6z"/>
		<path class="st2" d="M258.8,97.3c0.3-0.4,0.8-0.6,1.7-0.6c0.1,0,0.2,0,0.2,0s0.2,0,0.3,0v1.1c-0.1,0-0.2,0-0.3,0
			c-0.1,0-0.1,0-0.2,0c-0.4,0-0.6,0.1-0.7,0.3s-0.1,0.7-0.1,1.5h1.2v1h-1.2v6.3h-1.2v-6.3h-1v-1h1v-1.1
			C258.6,97.9,258.7,97.5,258.8,97.3z"/>
		<path class="st2" d="M262.5,96.8h1.3v1.4h-1.3V96.8z M262.5,99.5h1.3v7.3h-1.3V99.5z"/>
		<path class="st2" d="M270.8,99.9c0.5,0.4,0.8,1.1,0.9,2.1h-1.2c-0.1-0.5-0.2-0.8-0.5-1.1s-0.7-0.4-1.3-0.4c-0.8,0-1.3,0.4-1.7,1.1
			c-0.2,0.5-0.3,1.1-0.3,1.8c0,0.7,0.2,1.3,0.5,1.9c0.3,0.5,0.8,0.8,1.5,0.8c0.5,0,0.9-0.2,1.2-0.5s0.5-0.7,0.6-1.3h1.2
			c-0.1,1-0.5,1.7-1,2.1s-1.2,0.7-2.1,0.7c-1,0-1.7-0.3-2.3-1c-0.6-0.7-0.9-1.6-0.9-2.6c0-1.3,0.3-2.3,0.9-3
			c0.6-0.7,1.4-1.1,2.4-1.1C269.6,99.3,270.3,99.5,270.8,99.9z"/>
		<path class="st2" d="M278.6,100.2c0.6,0.6,1,1.6,1,2.8c0,1.2-0.3,2.2-0.9,2.9s-1.5,1.2-2.7,1.2c-1,0-1.8-0.3-2.4-1
			c-0.6-0.7-0.9-1.6-0.9-2.7c0-1.2,0.3-2.2,0.9-2.9s1.5-1.1,2.5-1.1C277.2,99.3,278,99.6,278.6,100.2z M277.9,105.1
			c0.3-0.6,0.4-1.3,0.4-2.1c0-0.7-0.1-1.2-0.3-1.7c-0.3-0.7-0.9-1-1.8-1c-0.7,0-1.3,0.3-1.6,0.9s-0.5,1.3-0.5,2.1
			c0,0.8,0.2,1.4,0.5,1.9s0.9,0.8,1.6,0.8C277,106,277.6,105.7,277.9,105.1z"/>
		<path class="st2" d="M292.5,101.2v1.1h-7.1v-1.1H292.5z M292.5,104.1v1.2h-7.1v-1.2H292.5z"/>
		<path class="st2" d="M210.2,113.6h7v1.2h-5.6v3h4.9v1.2h-4.9v4.6h-1.4V113.6z"/>
		<path class="st2" d="M218.8,116.3h1.2v1.3c0.1-0.2,0.3-0.5,0.7-0.9c0.4-0.4,0.8-0.5,1.3-0.5c0,0,0.1,0,0.1,0s0.1,0,0.3,0v1.3
			c-0.1,0-0.1,0-0.2,0s-0.1,0-0.2,0c-0.6,0-1.1,0.2-1.4,0.6c-0.3,0.4-0.5,0.9-0.5,1.4v4.2h-1.2V116.3z"/>
		<path class="st2" d="M228.3,116.5c0.5,0.2,0.9,0.6,1.1,0.9c0.2,0.4,0.4,0.8,0.5,1.3c0.1,0.3,0.1,0.9,0.1,1.6h-5.3
			c0,0.7,0.2,1.3,0.5,1.8s0.8,0.7,1.5,0.7c0.6,0,1.1-0.2,1.5-0.6c0.2-0.2,0.4-0.5,0.5-0.9h1.2c0,0.3-0.1,0.6-0.3,0.9
			c-0.2,0.3-0.4,0.6-0.6,0.8c-0.4,0.4-0.8,0.6-1.4,0.7c-0.3,0.1-0.6,0.1-1,0.1c-0.9,0-1.7-0.3-2.3-1c-0.6-0.7-0.9-1.6-0.9-2.8
			c0-1.2,0.3-2.1,1-2.9s1.5-1.1,2.5-1.1C227.4,116.1,227.9,116.3,228.3,116.5z M228.8,119.4c0-0.5-0.2-1-0.3-1.3
			c-0.3-0.6-0.9-0.9-1.7-0.9c-0.6,0-1,0.2-1.4,0.6c-0.4,0.4-0.6,0.9-0.6,1.6H228.8z"/>
		<path class="st2" d="M236.8,116.7c0.5,0.4,0.8,1.1,0.9,2.1h-1.2c-0.1-0.5-0.2-0.8-0.5-1.1s-0.7-0.4-1.3-0.4
			c-0.8,0-1.3,0.4-1.7,1.1c-0.2,0.5-0.3,1.1-0.3,1.8c0,0.7,0.2,1.3,0.5,1.9c0.3,0.5,0.8,0.8,1.5,0.8c0.5,0,0.9-0.2,1.2-0.5
			c0.3-0.3,0.5-0.7,0.6-1.3h1.2c-0.1,1-0.5,1.7-1,2.1s-1.2,0.7-2.1,0.7c-1,0-1.7-0.3-2.3-1s-0.9-1.6-0.9-2.6c0-1.3,0.3-2.3,0.9-3
			s1.4-1.1,2.4-1.1C235.6,116.1,236.3,116.3,236.8,116.7z"/>
		<path class="st2" d="M240.5,116.3v4.9c0,0.4,0.1,0.7,0.2,0.9c0.2,0.4,0.6,0.7,1.2,0.7c0.8,0,1.4-0.4,1.7-1.1
			c0.2-0.4,0.2-1,0.2-1.7v-3.6h1.2v7.3h-1.2l0-1.1c-0.2,0.3-0.4,0.5-0.6,0.7c-0.5,0.4-1,0.6-1.7,0.6c-1,0-1.7-0.3-2.1-1
			c-0.2-0.4-0.3-0.9-0.3-1.5v-5H240.5z"/>
		<path class="st2" d="M252,116.5c0.5,0.2,0.9,0.6,1.1,0.9c0.2,0.4,0.4,0.8,0.5,1.3c0.1,0.3,0.1,0.9,0.1,1.6h-5.3
			c0,0.7,0.2,1.3,0.5,1.8c0.3,0.5,0.8,0.7,1.5,0.7c0.6,0,1.1-0.2,1.5-0.6c0.2-0.2,0.4-0.5,0.5-0.9h1.2c0,0.3-0.1,0.6-0.3,0.9
			c-0.2,0.3-0.4,0.6-0.6,0.8c-0.4,0.4-0.8,0.6-1.4,0.7c-0.3,0.1-0.6,0.1-1,0.1c-0.9,0-1.7-0.3-2.3-1s-0.9-1.6-0.9-2.8
			c0-1.2,0.3-2.1,1-2.9c0.6-0.7,1.5-1.1,2.5-1.1C251,116.1,251.5,116.3,252,116.5z M252.4,119.4c0-0.5-0.2-1-0.3-1.3
			c-0.3-0.6-0.9-0.9-1.7-0.9c-0.6,0-1,0.2-1.4,0.6s-0.6,0.9-0.6,1.6H252.4z"/>
		<path class="st2" d="M255.6,116.3h1.2v1c0.3-0.4,0.7-0.7,1.1-0.9c0.4-0.2,0.8-0.3,1.3-0.3c1,0,1.7,0.4,2.1,1.1
			c0.2,0.4,0.3,1,0.3,1.7v4.7h-1.3V119c0-0.4-0.1-0.8-0.2-1.1c-0.2-0.5-0.6-0.7-1.2-0.7c-0.3,0-0.5,0-0.7,0.1
			c-0.3,0.1-0.6,0.3-0.9,0.6c-0.2,0.2-0.3,0.5-0.4,0.7s-0.1,0.6-0.1,1.1v3.8h-1.2V116.3z"/>
		<path class="st2" d="M268.5,116.7c0.5,0.4,0.8,1.1,0.9,2.1h-1.2c-0.1-0.5-0.2-0.8-0.5-1.1s-0.7-0.4-1.3-0.4
			c-0.8,0-1.3,0.4-1.7,1.1c-0.2,0.5-0.3,1.1-0.3,1.8c0,0.7,0.2,1.3,0.5,1.9c0.3,0.5,0.8,0.8,1.5,0.8c0.5,0,0.9-0.2,1.2-0.5
			c0.3-0.3,0.5-0.7,0.6-1.3h1.2c-0.1,1-0.5,1.7-1,2.1s-1.2,0.7-2.1,0.7c-1,0-1.7-0.3-2.3-1s-0.9-1.6-0.9-2.6c0-1.3,0.3-2.3,0.9-3
			s1.4-1.1,2.4-1.1C267.4,116.1,268,116.3,268.5,116.7z"/>
		<path class="st2" d="M271.1,113.6h1.3v1.4h-1.3V113.6z M271.1,116.3h1.3v7.3h-1.3V116.3z"/>
		<path class="st2" d="M278.4,119.2c0.3,0,0.5-0.2,0.6-0.4c0.1-0.1,0.1-0.3,0.1-0.5c0-0.4-0.1-0.7-0.4-0.9s-0.7-0.3-1.3-0.3
			c-0.6,0-1.1,0.2-1.4,0.5c-0.2,0.2-0.2,0.5-0.3,0.9h-1.1c0-0.9,0.3-1.5,0.9-1.9s1.2-0.5,2-0.5c0.9,0,1.6,0.2,2.1,0.5
			c0.5,0.3,0.8,0.8,0.8,1.5v4.2c0,0.1,0,0.2,0.1,0.3c0.1,0.1,0.2,0.1,0.3,0.1c0.1,0,0.1,0,0.2,0s0.1,0,0.2,0v0.9
			c-0.2,0.1-0.3,0.1-0.4,0.1c-0.1,0-0.2,0-0.4,0c-0.4,0-0.7-0.2-0.9-0.5c-0.1-0.2-0.2-0.4-0.2-0.7c-0.2,0.3-0.6,0.6-1.1,0.9
			c-0.5,0.2-1,0.4-1.6,0.4c-0.7,0-1.2-0.2-1.7-0.6c-0.4-0.4-0.6-0.9-0.6-1.5c0-0.7,0.2-1.2,0.6-1.6c0.4-0.4,1-0.6,1.7-0.7
			L278.4,119.2z M275.9,122.5c0.3,0.2,0.6,0.3,0.9,0.3c0.4,0,0.9-0.1,1.3-0.3c0.7-0.3,1-0.9,1-1.6v-1c-0.2,0.1-0.3,0.2-0.6,0.2
			s-0.5,0.1-0.7,0.1l-0.7,0.1c-0.4,0.1-0.8,0.2-1,0.3c-0.4,0.2-0.6,0.6-0.6,1C275.5,122,275.6,122.3,275.9,122.5z"/>
	</g>
	<g>
		<path class="st2" d="M210,158.6h1.9l2.9,8.5l2.9-8.5h1.9v10h-1.3v-5.9c0-0.2,0-0.5,0-1c0-0.5,0-1,0-1.5l-2.9,8.5h-1.3l-2.9-8.5
			v0.3c0,0.2,0,0.6,0,1.1s0,0.9,0,1.1v5.9H210V158.6z"/>
		<path class="st2" d="M226.4,161.6c0.5,0.2,0.9,0.6,1.1,0.9c0.2,0.4,0.4,0.8,0.5,1.3c0.1,0.3,0.1,0.9,0.1,1.6h-5.3
			c0,0.7,0.2,1.3,0.5,1.8c0.3,0.5,0.8,0.7,1.5,0.7c0.6,0,1.1-0.2,1.5-0.6c0.2-0.2,0.4-0.5,0.5-0.9h1.2c0,0.3-0.1,0.6-0.3,0.9
			s-0.4,0.6-0.6,0.8c-0.4,0.4-0.8,0.6-1.4,0.7c-0.3,0.1-0.6,0.1-1,0.1c-0.9,0-1.7-0.3-2.3-1c-0.6-0.7-0.9-1.6-0.9-2.8
			c0-1.2,0.3-2.1,1-2.9c0.6-0.7,1.5-1.1,2.5-1.1C225.5,161.2,226,161.3,226.4,161.6z M226.9,164.4c0-0.5-0.2-1-0.3-1.3
			c-0.3-0.6-0.9-0.9-1.7-0.9c-0.6,0-1,0.2-1.4,0.6c-0.4,0.4-0.6,0.9-0.6,1.6H226.9z"/>
		<path class="st2" d="M234.1,161.6c0.2,0.1,0.5,0.4,0.7,0.7v-3.7h1.2v10.1h-1.1v-1c-0.3,0.5-0.6,0.8-1,1c-0.4,0.2-0.8,0.3-1.3,0.3
			c-0.8,0-1.5-0.3-2.1-1c-0.6-0.7-0.9-1.6-0.9-2.7c0-1.1,0.3-2,0.8-2.8s1.3-1.2,2.3-1.2C233.2,161.2,233.7,161.4,234.1,161.6z
			 M231.3,167.1c0.3,0.5,0.9,0.8,1.6,0.8c0.6,0,1-0.2,1.4-0.7c0.4-0.5,0.5-1.2,0.5-2.1c0-0.9-0.2-1.6-0.6-2.1s-0.8-0.7-1.4-0.7
			c-0.6,0-1.1,0.2-1.5,0.7c-0.4,0.5-0.6,1.2-0.6,2.1C230.8,165.9,231,166.6,231.3,167.1z"/>
		<path class="st2" d="M238.2,158.6h1.3v1.4h-1.3V158.6z M238.2,161.4h1.3v7.3h-1.3V161.4z"/>
		<path class="st2" d="M245.6,164.3c0.3,0,0.5-0.2,0.6-0.4c0.1-0.1,0.1-0.3,0.1-0.5c0-0.4-0.1-0.7-0.4-0.9s-0.7-0.3-1.3-0.3
			c-0.6,0-1.1,0.2-1.4,0.5c-0.2,0.2-0.2,0.5-0.3,0.9h-1.1c0-0.9,0.3-1.5,0.9-1.9c0.6-0.4,1.2-0.5,2-0.5c0.9,0,1.6,0.2,2.1,0.5
			c0.5,0.3,0.8,0.8,0.8,1.5v4.2c0,0.1,0,0.2,0.1,0.3c0.1,0.1,0.2,0.1,0.3,0.1c0.1,0,0.1,0,0.2,0s0.1,0,0.2,0v0.9
			c-0.2,0.1-0.3,0.1-0.4,0.1c-0.1,0-0.2,0-0.4,0c-0.4,0-0.7-0.2-0.9-0.5c-0.1-0.2-0.2-0.4-0.2-0.7c-0.3,0.3-0.6,0.6-1.1,0.9
			c-0.5,0.2-1,0.4-1.6,0.4c-0.7,0-1.2-0.2-1.7-0.6c-0.4-0.4-0.6-0.9-0.6-1.5c0-0.7,0.2-1.2,0.6-1.6s1-0.6,1.7-0.7L245.6,164.3z
			 M243,167.6c0.3,0.2,0.6,0.3,0.9,0.3c0.4,0,0.9-0.1,1.3-0.3c0.7-0.3,1-0.9,1-1.6v-1c-0.2,0.1-0.3,0.2-0.6,0.2
			c-0.2,0.1-0.5,0.1-0.7,0.1l-0.7,0.1c-0.4,0.1-0.8,0.2-1,0.3c-0.4,0.2-0.6,0.6-0.6,1C242.6,167.1,242.7,167.4,243,167.6z"/>
		<path class="st2" d="M249.8,161.4h1.2v1c0.3-0.4,0.7-0.7,1.1-0.9c0.4-0.2,0.8-0.3,1.3-0.3c1,0,1.7,0.4,2.1,1.1
			c0.2,0.4,0.3,1,0.3,1.7v4.7h-1.3v-4.6c0-0.4-0.1-0.8-0.2-1.1c-0.2-0.5-0.6-0.7-1.2-0.7c-0.3,0-0.5,0-0.7,0.1
			c-0.3,0.1-0.6,0.3-0.9,0.6c-0.2,0.2-0.3,0.5-0.4,0.7c-0.1,0.3-0.1,0.6-0.1,1.1v3.8h-1.2V161.4z"/>
		<path class="st2" d="M261.8,164.3c0.3,0,0.5-0.2,0.6-0.4c0.1-0.1,0.1-0.3,0.1-0.5c0-0.4-0.1-0.7-0.4-0.9s-0.7-0.3-1.3-0.3
			c-0.6,0-1.1,0.2-1.4,0.5c-0.2,0.2-0.2,0.5-0.3,0.9H258c0-0.9,0.3-1.5,0.9-1.9c0.6-0.4,1.2-0.5,2-0.5c0.9,0,1.6,0.2,2.1,0.5
			c0.5,0.3,0.8,0.8,0.8,1.5v4.2c0,0.1,0,0.2,0.1,0.3c0.1,0.1,0.2,0.1,0.3,0.1c0.1,0,0.1,0,0.2,0s0.1,0,0.2,0v0.9
			c-0.2,0.1-0.3,0.1-0.4,0.1c-0.1,0-0.2,0-0.4,0c-0.4,0-0.7-0.2-0.9-0.5c-0.1-0.2-0.2-0.4-0.2-0.7c-0.2,0.3-0.6,0.6-1.1,0.9
			c-0.5,0.2-1,0.4-1.6,0.4c-0.7,0-1.2-0.2-1.7-0.6c-0.4-0.4-0.6-0.9-0.6-1.5c0-0.7,0.2-1.2,0.6-1.6s1-0.6,1.7-0.7L261.8,164.3z
			 M259.3,167.6c0.3,0.2,0.6,0.3,0.9,0.3c0.4,0,0.9-0.1,1.3-0.3c0.7-0.3,1-0.9,1-1.6v-1c-0.2,0.1-0.3,0.2-0.6,0.2s-0.5,0.1-0.7,0.1
			l-0.7,0.1c-0.4,0.1-0.8,0.2-1,0.3c-0.4,0.2-0.6,0.6-0.6,1C258.9,167.1,259,167.4,259.3,167.6z"/>
	</g>
	<g>
		<path class="st2" d="M210.2,210.3h4.6c0.8,0,1.4,0.1,1.9,0.3c0.9,0.4,1.4,1.2,1.4,2.4c0,0.6-0.1,1.1-0.4,1.5
			c-0.2,0.4-0.6,0.7-1,0.9c0.4,0.2,0.7,0.4,0.9,0.6c0.2,0.3,0.3,0.7,0.3,1.3l0,1.3c0,0.4,0,0.7,0.1,0.9c0.1,0.3,0.2,0.5,0.4,0.6v0.2
			h-1.7c0-0.1-0.1-0.2-0.1-0.3s0-0.4-0.1-0.8l-0.1-1.7c0-0.7-0.3-1.1-0.7-1.3c-0.3-0.1-0.6-0.2-1.2-0.2h-3v4.3h-1.4V210.3z
			 M214.6,214.9c0.6,0,1.1-0.1,1.5-0.4c0.4-0.3,0.5-0.7,0.5-1.4c0-0.7-0.3-1.2-0.8-1.5c-0.3-0.1-0.6-0.2-1.1-0.2h-3.2v3.4H214.6z"/>
		<path class="st2" d="M224.3,215.9c0.3,0,0.5-0.2,0.6-0.4c0.1-0.1,0.1-0.3,0.1-0.5c0-0.4-0.1-0.7-0.4-0.9s-0.7-0.3-1.3-0.3
			c-0.6,0-1.1,0.2-1.4,0.5c-0.2,0.2-0.2,0.5-0.3,0.9h-1.1c0-0.9,0.3-1.5,0.9-1.9c0.6-0.4,1.2-0.5,2-0.5c0.9,0,1.6,0.2,2.1,0.5
			c0.5,0.3,0.8,0.8,0.8,1.5v4.2c0,0.1,0,0.2,0.1,0.3c0.1,0.1,0.2,0.1,0.3,0.1c0.1,0,0.1,0,0.2,0s0.1,0,0.2,0v0.9
			c-0.2,0.1-0.3,0.1-0.4,0.1c-0.1,0-0.2,0-0.4,0c-0.4,0-0.7-0.2-0.9-0.5c-0.1-0.2-0.2-0.4-0.2-0.7c-0.2,0.3-0.6,0.6-1.1,0.9
			c-0.5,0.2-1,0.4-1.6,0.4c-0.7,0-1.2-0.2-1.7-0.6s-0.6-0.9-0.6-1.5c0-0.7,0.2-1.2,0.6-1.6c0.4-0.4,1-0.6,1.7-0.7L224.3,215.9z
			 M221.7,219.3c0.3,0.2,0.6,0.3,0.9,0.3c0.4,0,0.9-0.1,1.3-0.3c0.7-0.3,1-0.9,1-1.6v-1c-0.2,0.1-0.3,0.2-0.6,0.2s-0.5,0.1-0.7,0.1
			l-0.7,0.1c-0.4,0.1-0.8,0.2-1,0.3c-0.4,0.2-0.6,0.6-0.6,1C221.3,218.8,221.4,219,221.7,219.3z"/>
		<path class="st2" d="M228.5,213h1.2v1c0.3-0.4,0.7-0.7,1.1-0.9c0.4-0.2,0.8-0.3,1.3-0.3c1,0,1.7,0.4,2.1,1.1
			c0.2,0.4,0.3,1,0.3,1.7v4.7h-1.3v-4.6c0-0.4-0.1-0.8-0.2-1.1c-0.2-0.5-0.6-0.7-1.2-0.7c-0.3,0-0.5,0-0.7,0.1
			c-0.3,0.1-0.6,0.3-0.9,0.6c-0.2,0.2-0.3,0.5-0.4,0.7c-0.1,0.3-0.1,0.6-0.1,1.1v3.8h-1.2V213z"/>
		<path class="st2" d="M240.7,213.3c0.2,0.2,0.5,0.4,0.7,0.7v-0.9h1.1v6.7c0,0.9-0.1,1.7-0.4,2.2c-0.5,1-1.5,1.5-2.9,1.5
			c-0.8,0-1.4-0.2-2-0.5s-0.8-0.9-0.9-1.7h1.3c0.1,0.3,0.2,0.6,0.4,0.8c0.3,0.3,0.7,0.4,1.3,0.4c0.9,0,1.6-0.3,1.8-1
			c0.2-0.4,0.3-1.1,0.2-2.1c-0.2,0.4-0.5,0.7-0.9,0.8c-0.3,0.2-0.8,0.3-1.4,0.3c-0.8,0-1.5-0.3-2.1-0.8s-0.9-1.5-0.9-2.8
			c0-1.2,0.3-2.2,0.9-2.9c0.6-0.7,1.3-1,2.2-1C239.8,212.9,240.3,213,240.7,213.3z M240.9,214.7c-0.4-0.4-0.8-0.7-1.4-0.7
			c-0.9,0-1.5,0.4-1.8,1.2c-0.2,0.4-0.3,1-0.3,1.7c0,0.8,0.2,1.5,0.5,1.9c0.3,0.4,0.8,0.6,1.3,0.6c0.9,0,1.5-0.4,1.9-1.2
			c0.2-0.5,0.3-1,0.3-1.6C241.4,215.8,241.2,215.1,240.9,214.7z"/>
		<path class="st2" d="M250.1,213.8c0.6,0.6,1,1.6,1,2.8c0,1.2-0.3,2.2-0.9,2.9s-1.5,1.2-2.7,1.2c-1,0-1.8-0.3-2.4-1
			s-0.9-1.6-0.9-2.7c0-1.2,0.3-2.2,0.9-2.9c0.6-0.7,1.5-1.1,2.5-1.1C248.6,212.8,249.4,213.1,250.1,213.8z M249.3,218.6
			c0.3-0.6,0.5-1.3,0.5-2.1c0-0.7-0.1-1.2-0.3-1.7c-0.3-0.7-0.9-1-1.8-1c-0.7,0-1.3,0.3-1.6,0.9c-0.3,0.6-0.5,1.3-0.5,2.1
			c0,0.8,0.2,1.4,0.5,1.9c0.3,0.5,0.9,0.8,1.6,0.8C248.5,219.6,249,219.2,249.3,218.6z"/>
		<path class="st2" d="M209.9,227.1h1.3v1.4h-1.3V227.1z M209.9,229.9h1.3v7.3h-1.3V229.9z"/>
		<path class="st2" d="M213.4,229.8h1.2v1c0.3-0.4,0.7-0.7,1.1-0.9c0.4-0.2,0.8-0.3,1.3-0.3c1,0,1.7,0.4,2.1,1.1
			c0.2,0.4,0.3,1,0.3,1.7v4.7h-1.2v-4.6c0-0.4-0.1-0.8-0.2-1.1c-0.2-0.5-0.6-0.7-1.2-0.7c-0.3,0-0.5,0-0.7,0.1
			c-0.3,0.1-0.6,0.3-0.9,0.6c-0.2,0.2-0.3,0.5-0.4,0.7s-0.1,0.6-0.1,1.1v3.8h-1.2V229.8z"/>
		<path class="st2" d="M221.7,227.8h1.2v2h1.2v1H223v4.8c0,0.3,0.1,0.4,0.3,0.5c0.1,0,0.3,0.1,0.5,0.1c0.1,0,0.1,0,0.2,0
			s0.1,0,0.2,0v1c-0.1,0-0.3,0.1-0.4,0.1c-0.2,0-0.3,0-0.5,0c-0.6,0-1-0.1-1.2-0.4s-0.3-0.7-0.3-1.1v-4.8h-1v-1h1V227.8z"/>
		<path class="st2" d="M230.3,230c0.5,0.2,0.9,0.6,1.1,0.9c0.2,0.4,0.4,0.8,0.5,1.3c0.1,0.3,0.1,0.9,0.1,1.6h-5.3
			c0,0.7,0.2,1.3,0.5,1.8s0.8,0.7,1.5,0.7c0.6,0,1.1-0.2,1.5-0.6c0.2-0.2,0.4-0.5,0.5-0.9h1.2c0,0.3-0.1,0.6-0.3,0.9
			c-0.2,0.3-0.4,0.6-0.6,0.8c-0.4,0.4-0.8,0.6-1.4,0.7c-0.3,0.1-0.6,0.1-1,0.1c-0.9,0-1.7-0.3-2.3-1c-0.6-0.7-0.9-1.6-0.9-2.8
			c0-1.2,0.3-2.1,1-2.9c0.6-0.7,1.5-1.1,2.5-1.1C229.3,229.7,229.8,229.8,230.3,230z M230.7,232.9c0-0.5-0.2-1-0.3-1.3
			c-0.3-0.6-0.9-0.9-1.7-0.9c-0.6,0-1,0.2-1.4,0.6c-0.4,0.4-0.6,0.9-0.6,1.6H230.7z"/>
		<path class="st2" d="M233.9,229.8h1.2v1.3c0.1-0.2,0.3-0.5,0.7-0.9c0.4-0.4,0.8-0.5,1.3-0.5c0,0,0.1,0,0.1,0c0.1,0,0.1,0,0.3,0
			v1.3c-0.1,0-0.1,0-0.2,0c-0.1,0-0.1,0-0.2,0c-0.6,0-1.1,0.2-1.4,0.6c-0.3,0.4-0.5,0.9-0.5,1.4v4.2h-1.2V229.8z"/>
		<path class="st2" d="M243.7,230.2c0.5,0.4,0.8,1.1,0.9,2.1h-1.2c-0.1-0.5-0.2-0.8-0.5-1.1s-0.7-0.4-1.3-0.4
			c-0.8,0-1.3,0.4-1.7,1.1c-0.2,0.5-0.3,1.1-0.3,1.8c0,0.7,0.2,1.3,0.5,1.8c0.3,0.5,0.8,0.8,1.5,0.8c0.5,0,0.9-0.2,1.2-0.5
			c0.3-0.3,0.5-0.7,0.6-1.3h1.2c-0.1,1-0.5,1.7-1,2.1s-1.2,0.7-2.1,0.7c-1,0-1.7-0.3-2.3-1s-0.9-1.6-0.9-2.6c0-1.3,0.3-2.3,0.9-3
			c0.6-0.7,1.4-1.1,2.4-1.1C242.5,229.6,243.2,229.8,243.7,230.2z"/>
		<path class="st2" d="M247.5,229.8v4.9c0,0.4,0.1,0.7,0.2,0.9c0.2,0.4,0.6,0.7,1.2,0.7c0.8,0,1.4-0.4,1.7-1.1
			c0.2-0.4,0.2-1,0.2-1.7v-3.6h1.2v7.3h-1.2l0-1.1c-0.2,0.3-0.4,0.5-0.6,0.7c-0.5,0.4-1,0.6-1.7,0.6c-1,0-1.7-0.3-2.1-1
			c-0.2-0.4-0.3-0.9-0.3-1.5v-5H247.5z"/>
		<path class="st2" d="M258.3,232.7c0.3,0,0.5-0.2,0.6-0.4c0.1-0.1,0.1-0.3,0.1-0.5c0-0.4-0.1-0.7-0.4-0.9c-0.3-0.2-0.7-0.3-1.3-0.3
			c-0.6,0-1.1,0.2-1.4,0.5c-0.2,0.2-0.2,0.5-0.3,0.9h-1.1c0-0.9,0.3-1.5,0.9-1.9c0.6-0.4,1.2-0.5,2-0.5c0.9,0,1.6,0.2,2.1,0.5
			c0.5,0.3,0.8,0.8,0.8,1.5v4.2c0,0.1,0,0.2,0.1,0.3c0.1,0.1,0.2,0.1,0.3,0.1c0.1,0,0.1,0,0.2,0s0.1,0,0.2,0v0.9
			c-0.2,0.1-0.3,0.1-0.4,0.1s-0.2,0-0.4,0c-0.4,0-0.7-0.2-0.9-0.5c-0.1-0.2-0.2-0.4-0.2-0.7c-0.3,0.3-0.6,0.6-1.1,0.9
			c-0.5,0.2-1,0.4-1.6,0.4c-0.7,0-1.2-0.2-1.7-0.6c-0.4-0.4-0.6-0.9-0.6-1.5c0-0.7,0.2-1.2,0.6-1.6s1-0.6,1.7-0.7L258.3,232.7z
			 M255.7,236.1c0.3,0.2,0.6,0.3,0.9,0.3c0.4,0,0.9-0.1,1.3-0.3c0.7-0.3,1-0.9,1-1.6v-1c-0.2,0.1-0.3,0.2-0.6,0.2s-0.5,0.1-0.7,0.1
			l-0.7,0.1c-0.4,0.1-0.8,0.2-1,0.3c-0.4,0.2-0.6,0.6-0.6,1C255.3,235.6,255.4,235.8,255.7,236.1z"/>
		<path class="st2" d="M262.5,229.8h1.2v1.3c0.1-0.2,0.3-0.5,0.7-0.9s0.8-0.5,1.3-0.5c0,0,0.1,0,0.1,0c0.1,0,0.1,0,0.3,0v1.3
			c-0.1,0-0.1,0-0.2,0c-0.1,0-0.1,0-0.2,0c-0.6,0-1.1,0.2-1.4,0.6s-0.5,0.9-0.5,1.4v4.2h-1.2V229.8z"/>
		<path class="st2" d="M267.8,227.8h1.2v2h1.2v1H269v4.8c0,0.3,0.1,0.4,0.3,0.5c0.1,0,0.3,0.1,0.5,0.1c0.1,0,0.1,0,0.2,0
			s0.1,0,0.2,0v1c-0.1,0-0.3,0.1-0.4,0.1c-0.2,0-0.3,0-0.5,0c-0.6,0-1-0.1-1.2-0.4s-0.3-0.7-0.3-1.1v-4.8h-1v-1h1V227.8z"/>
		<path class="st2" d="M274.3,226.9l-1.8,2h-0.9l1.3-2H274.3z M272.2,229.9h1.3v7.3h-1.3V229.9z"/>
		<path class="st2" d="M276,227.1h1.2v10H276V227.1z"/>
		<path class="st2" d="M279.5,227.1h1.3v1.4h-1.3V227.1z M279.5,229.9h1.3v7.3h-1.3V229.9z"/>
		<path class="st2" d="M287.8,230.2c0.5,0.4,0.8,1.1,0.9,2.1h-1.2c-0.1-0.5-0.2-0.8-0.5-1.1s-0.7-0.4-1.3-0.4
			c-0.8,0-1.3,0.4-1.7,1.1c-0.2,0.5-0.3,1.1-0.3,1.8c0,0.7,0.2,1.3,0.5,1.8c0.3,0.5,0.8,0.8,1.5,0.8c0.5,0,0.9-0.2,1.2-0.5
			c0.3-0.3,0.5-0.7,0.6-1.3h1.2c-0.1,1-0.5,1.7-1,2.1s-1.2,0.7-2.1,0.7c-1,0-1.7-0.3-2.3-1s-0.9-1.6-0.9-2.6c0-1.3,0.3-2.3,0.9-3
			c0.6-0.7,1.4-1.1,2.4-1.1C286.6,229.6,287.2,229.8,287.8,230.2z"/>
		<path class="st2" d="M295.6,230.6c0.6,0.6,1,1.6,1,2.8c0,1.2-0.3,2.2-0.9,2.9s-1.5,1.2-2.7,1.2c-1,0-1.8-0.3-2.4-1
			s-0.9-1.6-0.9-2.7c0-1.2,0.3-2.2,0.9-2.9c0.6-0.7,1.5-1.1,2.5-1.1C294.1,229.6,294.9,229.9,295.6,230.6z M294.8,235.4
			c0.3-0.6,0.5-1.3,0.5-2.1c0-0.7-0.1-1.2-0.3-1.7c-0.3-0.7-0.9-1-1.8-1c-0.7,0-1.3,0.3-1.6,0.9c-0.3,0.6-0.5,1.3-0.5,2.1
			c0,0.8,0.2,1.4,0.5,1.9c0.3,0.5,0.9,0.8,1.6,0.8C294,236.4,294.5,236,294.8,235.4z"/>
	</g>
	<g>
		<path class="st2" d="M210.4,27.6h1.4v10h-1.4V27.6z"/>
		<path class="st2" d="M214.1,30.4h1.2v1c0.3-0.4,0.7-0.7,1.1-0.9c0.4-0.2,0.8-0.3,1.3-0.3c1,0,1.7,0.4,2.1,1.1
			c0.2,0.4,0.3,1,0.3,1.7v4.7h-1.2v-4.6c0-0.4-0.1-0.8-0.2-1.1c-0.2-0.5-0.6-0.7-1.2-0.7c-0.3,0-0.5,0-0.7,0.1
			c-0.3,0.1-0.6,0.3-0.9,0.6c-0.2,0.2-0.3,0.5-0.4,0.7s-0.1,0.6-0.1,1.1v3.8h-1.2V30.4z"/>
		<path class="st2" d="M222.5,28.3h1.2v2h1.2v1h-1.2v4.8c0,0.3,0.1,0.4,0.3,0.5c0.1,0.1,0.3,0.1,0.5,0.1c0.1,0,0.1,0,0.2,0
			s0.1,0,0.2,0v1c-0.1,0-0.3,0.1-0.4,0.1c-0.2,0-0.3,0-0.5,0c-0.6,0-1-0.1-1.2-0.4s-0.3-0.7-0.3-1.1v-4.8h-1v-1h1V28.3z"/>
		<path class="st2" d="M231,30.6c0.5,0.2,0.9,0.6,1.1,0.9c0.2,0.4,0.4,0.8,0.5,1.3c0.1,0.3,0.1,0.9,0.1,1.6h-5.3
			c0,0.7,0.2,1.3,0.5,1.8s0.8,0.7,1.5,0.7c0.6,0,1.1-0.2,1.5-0.6c0.2-0.2,0.4-0.5,0.5-0.9h1.2c0,0.3-0.1,0.6-0.3,0.9
			c-0.2,0.3-0.4,0.6-0.6,0.8c-0.4,0.4-0.8,0.6-1.4,0.7c-0.3,0.1-0.6,0.1-1,0.1c-0.9,0-1.7-0.3-2.3-1c-0.6-0.7-0.9-1.6-0.9-2.8
			c0-1.2,0.3-2.1,1-2.9s1.5-1.1,2.5-1.1C230.1,30.2,230.6,30.3,231,30.6z M231.5,33.4c0-0.5-0.2-1-0.3-1.3c-0.3-0.6-0.9-0.9-1.7-0.9
			c-0.6,0-1,0.2-1.4,0.6c-0.4,0.4-0.6,0.9-0.6,1.6H231.5z"/>
		<path class="st2" d="M234.7,30.4h1.2v1.3c0.1-0.2,0.3-0.5,0.7-0.9c0.4-0.4,0.8-0.5,1.3-0.5c0,0,0.1,0,0.1,0s0.1,0,0.3,0v1.3
			c-0.1,0-0.1,0-0.2,0s-0.1,0-0.2,0c-0.6,0-1.1,0.2-1.4,0.6c-0.3,0.4-0.5,0.9-0.5,1.4v4.2h-1.2V30.4z"/>
		<path class="st2" d="M240.3,30.4l2,6l2-6h1.3l-2.8,7.3h-1.3l-2.7-7.3H240.3z"/>
		<path class="st2" d="M250.9,33.3c0.3,0,0.5-0.2,0.6-0.4c0.1-0.1,0.1-0.3,0.1-0.5c0-0.4-0.1-0.7-0.4-0.9s-0.7-0.3-1.3-0.3
			c-0.6,0-1.1,0.2-1.4,0.5c-0.2,0.2-0.2,0.5-0.3,0.9h-1.1c0-0.9,0.3-1.5,0.9-1.9s1.2-0.5,2-0.5c0.9,0,1.6,0.2,2.1,0.5
			c0.5,0.3,0.8,0.8,0.8,1.5v4.2c0,0.1,0,0.2,0.1,0.3c0.1,0.1,0.2,0.1,0.3,0.1c0.1,0,0.1,0,0.2,0s0.1,0,0.2,0v0.9
			c-0.2,0.1-0.3,0.1-0.4,0.1c-0.1,0-0.2,0-0.4,0c-0.4,0-0.7-0.2-0.9-0.5c-0.1-0.2-0.2-0.4-0.2-0.7c-0.3,0.3-0.6,0.6-1.1,0.9
			c-0.5,0.2-1,0.4-1.6,0.4c-0.7,0-1.2-0.2-1.7-0.6c-0.4-0.4-0.6-0.9-0.6-1.5c0-0.7,0.2-1.2,0.6-1.6c0.4-0.4,1-0.6,1.7-0.7
			L250.9,33.3z M248.3,36.6c0.3,0.2,0.6,0.3,0.9,0.3c0.4,0,0.9-0.1,1.3-0.3c0.7-0.3,1-0.9,1-1.6v-1c-0.2,0.1-0.3,0.2-0.6,0.2
			c-0.2,0.1-0.5,0.1-0.7,0.1l-0.7,0.1c-0.4,0.1-0.8,0.2-1,0.3c-0.4,0.2-0.6,0.6-0.6,1C248,36.1,248.1,36.4,248.3,36.6z"/>
		<path class="st2" d="M255.2,27.6h1.2v10h-1.2V27.6z"/>
		<path class="st2" d="M263.9,31.1c0.6,0.6,1,1.6,1,2.8c0,1.2-0.3,2.2-0.9,2.9c-0.6,0.8-1.5,1.2-2.7,1.2c-1,0-1.8-0.3-2.4-1
			c-0.6-0.7-0.9-1.6-0.9-2.7c0-1.2,0.3-2.2,0.9-2.9c0.6-0.7,1.5-1.1,2.5-1.1C262.5,30.2,263.3,30.5,263.9,31.1z M263.2,36
			c0.3-0.6,0.5-1.3,0.5-2.1c0-0.7-0.1-1.2-0.3-1.7c-0.3-0.7-0.9-1-1.8-1c-0.7,0-1.3,0.3-1.6,0.9s-0.5,1.3-0.5,2.1
			c0,0.8,0.2,1.4,0.5,1.9s0.9,0.8,1.6,0.8C262.3,36.9,262.9,36.6,263.2,36z"/>
		<path class="st2" d="M275,30.6c0.2,0.1,0.5,0.4,0.7,0.7v-3.7h1.2v10.1h-1.1v-1c-0.3,0.5-0.6,0.8-1,1c-0.4,0.2-0.8,0.3-1.3,0.3
			c-0.8,0-1.5-0.3-2.1-1c-0.6-0.7-0.9-1.6-0.9-2.7c0-1.1,0.3-2,0.8-2.8s1.3-1.2,2.3-1.2C274.2,30.2,274.6,30.4,275,30.6z
			 M272.3,36.1c0.3,0.5,0.9,0.8,1.6,0.8c0.6,0,1-0.2,1.4-0.7c0.4-0.5,0.5-1.2,0.5-2.1c0-0.9-0.2-1.6-0.6-2.1s-0.8-0.7-1.4-0.7
			c-0.6,0-1.1,0.2-1.5,0.7c-0.4,0.5-0.6,1.2-0.6,2.1C271.8,34.9,271.9,35.6,272.3,36.1z"/>
		<path class="st2" d="M283.6,30.6c0.5,0.2,0.9,0.6,1.1,0.9c0.2,0.4,0.4,0.8,0.5,1.3c0.1,0.3,0.1,0.9,0.1,1.6H280
			c0,0.7,0.2,1.3,0.5,1.8c0.3,0.5,0.8,0.7,1.5,0.7c0.6,0,1.1-0.2,1.5-0.6c0.2-0.2,0.4-0.5,0.5-0.9h1.2c0,0.3-0.1,0.6-0.3,0.9
			s-0.4,0.6-0.6,0.8c-0.4,0.4-0.8,0.6-1.4,0.7c-0.3,0.1-0.6,0.1-1,0.1c-0.9,0-1.7-0.3-2.3-1c-0.6-0.7-0.9-1.6-0.9-2.8
			c0-1.2,0.3-2.1,1-2.9c0.6-0.7,1.5-1.1,2.5-1.1C282.7,30.2,283.2,30.3,283.6,30.6z M284.1,33.4c-0.1-0.5-0.2-1-0.3-1.3
			c-0.3-0.6-0.9-0.9-1.7-0.9c-0.6,0-1,0.2-1.4,0.6c-0.4,0.4-0.6,0.9-0.6,1.6H284.1z"/>
		<path class="st2" d="M214.7,47.6c0.5,0.4,0.8,1.1,0.9,2.1h-1.2c-0.1-0.5-0.2-0.8-0.5-1.1s-0.7-0.4-1.3-0.4c-0.8,0-1.3,0.4-1.7,1.1
			c-0.2,0.5-0.3,1.1-0.3,1.8c0,0.7,0.2,1.3,0.5,1.9c0.3,0.5,0.8,0.8,1.5,0.8c0.5,0,0.9-0.2,1.2-0.5c0.3-0.3,0.5-0.7,0.6-1.3h1.2
			c-0.1,1-0.5,1.7-1,2.1s-1.2,0.7-2.1,0.7c-1,0-1.7-0.3-2.3-1s-0.9-1.6-0.9-2.6c0-1.3,0.3-2.3,0.9-3s1.4-1.1,2.4-1.1
			C213.6,47,214.2,47.2,214.7,47.6z"/>
		<path class="st2" d="M222.6,47.9c0.6,0.6,1,1.6,1,2.8c0,1.2-0.3,2.2-0.9,2.9c-0.6,0.8-1.5,1.2-2.7,1.2c-1,0-1.8-0.3-2.4-1
			s-0.9-1.6-0.9-2.7c0-1.2,0.3-2.2,0.9-2.9c0.6-0.7,1.5-1.1,2.5-1.1C221.1,47,221.9,47.3,222.6,47.9z M221.8,52.8
			c0.3-0.6,0.4-1.3,0.4-2.1c0-0.7-0.1-1.2-0.3-1.7c-0.3-0.7-0.9-1-1.8-1c-0.7,0-1.3,0.3-1.6,0.9S218,50.2,218,51
			c0,0.8,0.2,1.4,0.5,1.9s0.9,0.8,1.6,0.8C220.9,53.7,221.5,53.4,221.8,52.8z"/>
		<path class="st2" d="M225.4,47.2h1.2v1c0.3-0.4,0.7-0.7,1.1-0.9s0.8-0.3,1.3-0.3c1,0,1.7,0.4,2.1,1.1c0.2,0.4,0.3,1,0.3,1.7v4.7
			h-1.3v-4.6c0-0.4-0.1-0.8-0.2-1.1c-0.2-0.5-0.6-0.7-1.2-0.7c-0.3,0-0.5,0-0.7,0.1c-0.3,0.1-0.6,0.3-0.9,0.6
			c-0.2,0.2-0.3,0.5-0.4,0.7c-0.1,0.3-0.1,0.6-0.1,1.1v3.8h-1.2V47.2z"/>
		<path class="st2" d="M234.1,44.9c0.3-0.4,0.8-0.6,1.7-0.6c0.1,0,0.2,0,0.2,0s0.2,0,0.3,0v1.1c-0.1,0-0.2,0-0.3,0
			c-0.1,0-0.1,0-0.2,0c-0.4,0-0.6,0.1-0.7,0.3s-0.1,0.7-0.1,1.5h1.2v1H235v6.3h-1.2v-6.3h-1v-1h1v-1.1
			C233.8,45.5,233.9,45.2,234.1,44.9z"/>
		<path class="st2" d="M237.8,44.4h1.3v1.4h-1.3V44.4z M237.8,47.2h1.3v7.3h-1.3V47.2z"/>
		<path class="st2" d="M245.1,50.1c0.3,0,0.5-0.2,0.6-0.4c0.1-0.1,0.1-0.3,0.1-0.5c0-0.4-0.1-0.7-0.4-0.9c-0.3-0.2-0.7-0.3-1.3-0.3
			c-0.6,0-1.1,0.2-1.4,0.5c-0.2,0.2-0.2,0.5-0.3,0.9h-1.1c0-0.9,0.3-1.5,0.9-1.9c0.6-0.4,1.2-0.5,2-0.5c0.9,0,1.6,0.2,2.1,0.5
			c0.5,0.3,0.8,0.8,0.8,1.5v4.2c0,0.1,0,0.2,0.1,0.3c0.1,0.1,0.2,0.1,0.3,0.1c0.1,0,0.1,0,0.2,0s0.1,0,0.2,0v0.9
			c-0.2,0.1-0.3,0.1-0.4,0.1s-0.2,0-0.4,0c-0.4,0-0.7-0.2-0.9-0.5c-0.1-0.2-0.2-0.4-0.2-0.7c-0.3,0.3-0.6,0.6-1.1,0.9
			c-0.5,0.2-1,0.4-1.6,0.4c-0.7,0-1.2-0.2-1.7-0.6c-0.4-0.4-0.6-0.9-0.6-1.5c0-0.7,0.2-1.2,0.6-1.6c0.4-0.4,1-0.6,1.7-0.7
			L245.1,50.1z M242.6,53.4c0.3,0.2,0.6,0.3,0.9,0.3c0.4,0,0.9-0.1,1.3-0.3c0.7-0.3,1-0.9,1-1.6v-1c-0.2,0.1-0.3,0.2-0.6,0.2
			s-0.5,0.1-0.7,0.1l-0.7,0.1c-0.4,0.1-0.8,0.2-1,0.3c-0.4,0.2-0.6,0.6-0.6,1C242.2,52.9,242.3,53.2,242.6,53.4z"/>
		<path class="st2" d="M249.4,47.2h1.2v1c0.3-0.4,0.7-0.7,1.1-0.9c0.4-0.2,0.8-0.3,1.3-0.3c1,0,1.7,0.4,2.1,1.1
			c0.2,0.4,0.3,1,0.3,1.7v4.7h-1.2v-4.6c0-0.4-0.1-0.8-0.2-1.1c-0.2-0.5-0.6-0.7-1.2-0.7c-0.3,0-0.5,0-0.7,0.1
			c-0.3,0.1-0.6,0.3-0.9,0.6c-0.2,0.2-0.3,0.5-0.4,0.7s-0.1,0.6-0.1,1.1v3.8h-1.2V47.2z"/>
		<path class="st2" d="M257,53.5l4.3-5.2h-4v-1.1h5.7v1l-4.3,5.2h4.4v1.1H257V53.5z"/>
		<path class="st2" d="M268.8,50.1c0.3,0,0.5-0.2,0.6-0.4c0.1-0.1,0.1-0.3,0.1-0.5c0-0.4-0.1-0.7-0.4-0.9c-0.3-0.2-0.7-0.3-1.3-0.3
			c-0.6,0-1.1,0.2-1.4,0.5c-0.2,0.2-0.2,0.5-0.3,0.9h-1.1c0-0.9,0.3-1.5,0.9-1.9c0.6-0.4,1.2-0.5,2-0.5c0.9,0,1.6,0.2,2.1,0.5
			c0.5,0.3,0.8,0.8,0.8,1.5v4.2c0,0.1,0,0.2,0.1,0.3c0.1,0.1,0.2,0.1,0.3,0.1c0.1,0,0.1,0,0.2,0s0.1,0,0.2,0v0.9
			c-0.2,0.1-0.3,0.1-0.4,0.1s-0.2,0-0.4,0c-0.4,0-0.7-0.2-0.9-0.5c-0.1-0.2-0.2-0.4-0.2-0.7c-0.2,0.3-0.6,0.6-1.1,0.9
			c-0.5,0.2-1,0.4-1.6,0.4c-0.7,0-1.2-0.2-1.7-0.6c-0.4-0.4-0.6-0.9-0.6-1.5c0-0.7,0.2-1.2,0.6-1.6c0.4-0.4,1-0.6,1.7-0.7
			L268.8,50.1z M266.2,53.4c0.3,0.2,0.6,0.3,0.9,0.3c0.4,0,0.9-0.1,1.3-0.3c0.7-0.3,1-0.9,1-1.6v-1c-0.2,0.1-0.3,0.2-0.6,0.2
			c-0.2,0.1-0.5,0.1-0.7,0.1l-0.7,0.1c-0.4,0.1-0.8,0.2-1,0.3c-0.4,0.2-0.6,0.6-0.6,1C265.8,52.9,265.9,53.2,266.2,53.4z"/>
		<path class="st2" d="M281.2,47.4c0.2,0.1,0.5,0.4,0.7,0.7v-3.7h1.2v10.1h-1.1v-1c-0.3,0.5-0.6,0.8-1,1c-0.4,0.2-0.8,0.3-1.3,0.3
			c-0.8,0-1.5-0.3-2.1-1c-0.6-0.7-0.9-1.6-0.9-2.7c0-1.1,0.3-2,0.8-2.8s1.3-1.2,2.3-1.2C280.4,47,280.9,47.2,281.2,47.4z
			 M278.5,52.9c0.3,0.5,0.9,0.8,1.6,0.8c0.6,0,1-0.2,1.4-0.7c0.4-0.5,0.5-1.2,0.5-2.1c0-0.9-0.2-1.6-0.6-2.1s-0.8-0.7-1.4-0.7
			c-0.6,0-1.1,0.2-1.5,0.7c-0.4,0.5-0.6,1.2-0.6,2.1C278,51.7,278.2,52.4,278.5,52.9z"/>
		<path class="st2" d="M289.9,47.4c0.5,0.2,0.9,0.6,1.1,0.9c0.2,0.4,0.4,0.8,0.5,1.3c0.1,0.3,0.1,0.9,0.1,1.6h-5.3
			c0,0.7,0.2,1.3,0.5,1.8c0.3,0.5,0.8,0.7,1.5,0.7c0.6,0,1.1-0.2,1.5-0.6c0.2-0.2,0.4-0.5,0.5-0.9h1.2c0,0.3-0.1,0.6-0.3,0.9
			s-0.4,0.6-0.6,0.8c-0.4,0.4-0.8,0.6-1.4,0.7c-0.3,0.1-0.6,0.1-1,0.1c-0.9,0-1.7-0.3-2.3-1c-0.6-0.7-0.9-1.6-0.9-2.8
			c0-1.2,0.3-2.1,1-2.9c0.6-0.7,1.5-1.1,2.5-1.1C288.9,47,289.4,47.1,289.9,47.4z M290.3,50.2c-0.1-0.5-0.2-1-0.3-1.3
			c-0.3-0.6-0.9-0.9-1.7-0.9c-0.6,0-1,0.2-1.4,0.6c-0.4,0.4-0.6,0.9-0.6,1.6H290.3z"/>
		<path class="st2" d="M298.7,52.1c0,0.7,0.3,1.1,0.8,1.4c0.3,0.1,0.5,0.2,0.8,0.2c0.6,0,1.1-0.2,1.5-0.7s0.7-1.5,0.9-3
			c-0.3,0.4-0.6,0.7-1,0.9c-0.4,0.2-0.8,0.3-1.3,0.3c-0.9,0-1.7-0.3-2.2-0.9c-0.5-0.6-0.8-1.3-0.8-2.3c0-0.9,0.3-1.7,0.8-2.3
			s1.3-1,2.4-1c1.4,0,2.4,0.6,3,1.9c0.3,0.7,0.5,1.6,0.5,2.7c0,1.2-0.2,2.3-0.5,3.2c-0.6,1.5-1.6,2.3-3,2.3c-1,0-1.7-0.3-2.2-0.8
			s-0.7-1.1-0.7-1.9H298.7z M301.9,49.6c0.4-0.3,0.6-0.9,0.6-1.7c0-0.7-0.2-1.3-0.5-1.6c-0.4-0.4-0.8-0.5-1.4-0.5
			c-0.6,0-1.1,0.2-1.4,0.6c-0.4,0.4-0.5,0.9-0.5,1.6c0,0.6,0.2,1.1,0.5,1.5s0.8,0.6,1.5,0.6C301,50.1,301.5,49.9,301.9,49.6z"/>
		<path class="st2" d="M306.7,52c0.1,0.7,0.4,1.2,1,1.5c0.3,0.1,0.6,0.2,1,0.2c0.7,0,1.3-0.2,1.6-0.7c0.4-0.5,0.5-1,0.5-1.5
			c0-0.7-0.2-1.2-0.6-1.6s-0.9-0.6-1.5-0.6c-0.4,0-0.8,0.1-1.1,0.2s-0.6,0.4-0.8,0.7l-1.1-0.1l0.7-5.3h5.1v1.2h-4.2l-0.4,2.7
			c0.2-0.2,0.4-0.3,0.7-0.4c0.4-0.2,0.8-0.2,1.3-0.2c0.9,0,1.7,0.3,2.3,0.9c0.6,0.6,0.9,1.3,0.9,2.2c0,0.9-0.3,1.7-0.9,2.4
			s-1.5,1.1-2.7,1.1c-0.8,0-1.5-0.2-2.1-0.7s-1-1.1-1-2.1H306.7z"/>
		<path class="st2" d="M317.6,45.7c0.5,0.5,0.7,1,0.7,1.7s-0.2,1.2-0.7,1.7s-1,0.7-1.7,0.7c-0.7,0-1.2-0.2-1.7-0.7s-0.7-1-0.7-1.7
			s0.2-1.2,0.7-1.7s1-0.7,1.7-0.7C316.6,45,317.2,45.2,317.6,45.7z M316.9,48.4c0.3-0.3,0.4-0.6,0.4-1s-0.1-0.7-0.4-1
			c-0.3-0.3-0.6-0.4-1-0.4c-0.4,0-0.7,0.1-1,0.4c-0.3,0.3-0.4,0.6-0.4,1c0,0.4,0.1,0.7,0.4,1c0.3,0.3,0.6,0.4,1,0.4
			C316.3,48.8,316.7,48.7,316.9,48.4z M321.7,44.7h0.8l-5.5,10h-0.8L321.7,44.7z M324.3,50.4c0.5,0.5,0.7,1,0.7,1.7
			s-0.2,1.2-0.7,1.7s-1,0.7-1.7,0.7c-0.7,0-1.2-0.2-1.7-0.7s-0.7-1-0.7-1.7s0.2-1.2,0.7-1.7c0.5-0.5,1-0.7,1.7-0.7
			C323.3,49.7,323.9,50,324.3,50.4z M323.6,53.1c0.3-0.3,0.4-0.6,0.4-1s-0.1-0.7-0.4-1c-0.3-0.3-0.6-0.4-1-0.4c-0.4,0-0.7,0.1-1,0.4
			c-0.3,0.3-0.4,0.6-0.4,1s0.1,0.7,0.4,1c0.3,0.3,0.6,0.4,1,0.4C323,53.5,323.4,53.4,323.6,53.1z"/>
	</g>
	<path class="st3" d="M125.2,73.8c0,0-0.1,0.7,0.1,2c0.2,1.3,0.6,3.3,1.4,5.8c0.8,2.5,2.1,5.5,4.1,9c1,1.7,2.1,3.6,3.4,5.5
		c0.7,1,1.5,2,2.3,3c0.4,0.5,0.8,1,1.3,1.5c0.5,0.5,1,1.1,1.5,1.6c4.1,4.3,10.1,8.9,15.6,13.8c2.9,2.4,5.3,5,7.3,7.5
		c2,2.6,3.3,5.2,4.1,7.9c0.4,1.3,0.8,2.7,0.2,4c-0.5,1.4-1.6,2.7-3.4,4.1c-0.8,0.7-1.9,1.4-3,2.1c-1.2,0.7-2.4,1.4-3.6,2.1
		c-2.4,1.4-5,2.8-7.1,4.2c-2.1,1.4-3.6,2.8-4.4,4.2c-0.8,1.4-0.8,2.8-0.6,4.2c0.4,2.8,1.9,5.7,4.4,8.5c2.4,2.8,5.9,5.7,8.9,8.5
		c3.2,2.8,6.1,5.7,7.7,8.5c1.7,2.8,2.3,5.6,1.8,8.3c-0.4,2.7-1.4,5.5-3,8.1c-3.1,5.3-9,10.5-14.7,15.4c-1.4,1.2-2.7,2.4-4,3.6
		c-1.3,1.2-2.6,2.4-3.7,3.5c-0.6,0.6-1.1,1.1-1.7,1.7c-0.5,0.6-1,1.1-1.5,1.7c-1,1.1-1.8,2.2-2.6,3.3c-1.6,2.1-2.7,4.2-3.8,6.1
		c-0.5,1-1,1.9-1.5,2.8c-0.4,0.9-0.9,1.8-1.3,2.7c-1.6,3.5-2.7,6.5-3.4,9c-1.4,5-1.2,7.8-1.2,7.8c0,0.4-0.3,0.7-0.7,0.8
		c-0.4,0-0.7-0.3-0.8-0.7c0,0,0-0.1,0-0.1c0,0,0.2-2.8-1.2-7.8c-0.7-2.5-1.8-5.5-3.4-9c-0.4-0.9-0.9-1.8-1.3-2.7
		c-0.5-0.9-1-1.9-1.5-2.8c-1.1-1.9-2.2-4-3.8-6.1c-0.8-1.1-1.6-2.2-2.6-3.3c-0.5-0.6-1-1.1-1.5-1.7c-0.5-0.6-1.1-1.1-1.7-1.7
		c-1.1-1.2-2.4-2.3-3.7-3.5c-1.3-1.2-2.6-2.4-4-3.6c-5.6-4.9-11.5-10-14.7-15.4c-1.6-2.7-2.6-5.4-3-8.1c-0.4-2.7,0.1-5.5,1.8-8.3
		c1.6-2.8,4.5-5.6,7.7-8.5c3-2.8,6.5-5.7,8.9-8.5c2.5-2.8,4-5.7,4.4-8.5c0.2-1.4,0.3-2.8-0.6-4.2c-0.8-1.4-2.3-2.8-4.4-4.2
		c-2-1.4-4.7-2.8-7.1-4.2c-1.2-0.7-2.4-1.4-3.6-2.1c-1.1-0.7-2.2-1.4-3-2.1c-1.8-1.4-2.9-2.7-3.4-4.1c-0.5-1.4-0.1-2.7,0.2-4
		c0.8-2.7,2.1-5.3,4.1-7.9c2-2.6,4.5-5.1,7.3-7.5c5.5-4.9,11.6-9.5,15.6-13.8c0.5-0.5,1-1.1,1.5-1.6c0.5-0.5,0.9-1,1.3-1.5
		c0.9-1,1.7-2,2.3-3c1.3-1.9,2.4-3.8,3.4-5.5c2-3.5,3.3-6.5,4.1-9c0.8-2.5,1.2-4.4,1.4-5.8c0.2-1.3,0.1-2,0.1-2
		c0-0.4,0.3-0.8,0.7-0.8c0.4,0,0.8,0.3,0.8,0.7C125.2,73.7,125.2,73.7,125.2,73.8z"/>
	<line class="st4" x1="124.4" y1="85.2" x2="124.4" y2="239.1"/>
	<rect x="116.1" y="135.3" class="st5" width="16.8" height="59.1"/>
	<circle class="st6" cx="124.4" cy="164.8" r="5.7"/>
</g>
<g id="Layer_1">
	<g>
		<g>
			<polyline class="st7" points="145.9,124.3 167.6,102.5 202,102.5 			"/>
			<g>
				<g>
					
						<ellipse transform="matrix(0.7071 -0.7071 0.7071 0.7071 -47.0494 138.7699)" class="st6" cx="144" cy="126.2" rx="3.4" ry="3.4"/>
					<path class="st2" d="M146.7,128.9c1.5-1.5,1.5-3.9,0-5.4c-1.5-1.5-3.9-1.5-5.4,0c-1.5,1.5-1.5,3.9,0,5.4
						C142.8,130.4,145.2,130.4,146.7,128.9C148.2,127.4,145.2,130.4,146.7,128.9z M141.9,124.1c1.1-1.1,3-1.1,4.1,0
						c1.1,1.1,1.1,3,0,4.1c-1.1,1.1-3,1.1-4.1,0C140.8,127.1,140.8,125.2,141.9,124.1C143.1,123,140.8,125.2,141.9,124.1z"/>
				</g>
			</g>
		</g>
	</g>
	<g>
		<g>
			<polyline class="st7" points="124.6,184.2 156.4,215.9 202,215.9 			"/>
			<g>
				<g>
					
						<ellipse transform="matrix(0.7071 -0.7071 0.7071 0.7071 -93.7808 142.2162)" class="st6" cx="124.8" cy="184.3" rx="3.4" ry="3.4"/>
					<path class="st2" d="M127.5,181.6c-1.5-1.5-3.9-1.5-5.4,0c-1.5,1.5-1.5,3.9,0,5.4c1.5,1.5,3.9,1.5,5.4,0
						C129,185.5,129,183.1,127.5,181.6C126,180.1,129,183.1,127.5,181.6z M122.7,186.4c-1.1-1.1-1.1-3,0-4.1c1.1-1.1,3-1.1,4.1,0
						c1.1,1.1,1.1,3,0,4.1C125.7,187.5,123.8,187.5,122.7,186.4C121.6,185.2,123.8,187.5,122.7,186.4z"/>
				</g>
			</g>
		</g>
	</g>
	<g>
		<g>
			<polyline class="st7" points="127,104 181.3,49.7 202,49.7 			"/>
			<g>
				<g>
					
						<ellipse transform="matrix(0.7071 -0.7071 0.7071 0.7071 -38.7437 119.2515)" class="st6" cx="124.6" cy="106.4" rx="3.4" ry="3.4"/>
					<path class="st2" d="M127.3,109.1c1.5-1.5,1.5-3.9,0-5.4c-1.5-1.5-3.9-1.5-5.4,0c-1.5,1.5-1.5,3.9,0,5.4
						C123.4,110.6,125.8,110.6,127.3,109.1C128.8,107.6,125.8,110.6,127.3,109.1z M122.5,104.3c1.1-1.1,3-1.1,4.1,0
						c1.1,1.1,1.1,3,0,4.1c-1.1,1.1-3,1.1-4.1,0C121.4,107.3,121.4,105.5,122.5,104.3C123.6,103.2,121.4,105.5,122.5,104.3z"/>
				</g>
			</g>
		</g>
	</g>
	<g>
		<g>
			<line class="st7" x1="128.4" y1="164.8" x2="202" y2="164.8"/>
			<g>
				<g>
					<circle class="st6" cx="128.6" cy="164.8" r="3.4"/>
					<path class="st2" d="M128.6,168.7c2.1,0,3.8-1.7,3.8-3.8s-1.7-3.8-3.8-3.8c-2.1,0-3.8,1.7-3.8,3.8S126.5,168.7,128.6,168.7
						C130.7,168.7,126.5,168.7,128.6,168.7z M128.6,161.9c1.6,0,2.9,1.3,2.9,2.9c0,1.6-1.3,2.9-2.9,2.9c-1.6,0-2.9-1.3-2.9-2.9
						C125.7,163.2,127,161.9,128.6,161.9C130.2,161.9,127,161.9,128.6,161.9z"/>
				</g>
			</g>
		</g>
	</g>
	<g>
	</g>
	<g>
	</g>
	<g>
	</g>
	<g>
	</g>
	<g>
	</g>
	<g>
	</g>
	<g>
	</g>
	<g>
	</g>
	<g>
	</g>
	<g>
	</g>
</g>
</svg>
